# MagicaVoxel @ Ephtracy

# group
g road1

# material
mtllib road1.mtl
usemtl palette

# normals
vn -1 0 0
vn 1 0 0
vn 0 0 1
vn 0 0 -1
vn 0 -1 0
vn 0 1 0

# texcoords
vt 0.0410156 0.5
vt 0.306641 0.5
vt 0.630859 0.5
vt 0.650391 0.5
vt 0.654297 0.5
vt 0.900391 0.5
vt 0.986328 0.5

# verts
v -40 0 40
v -40 0 -40
v -40 2 40
v -40 2 -40
v -40 3 40
v -40 3 -40
v 7 2 40
v 7 2 -1
v 7 2 -7
v 7 2 -40
v 7 3 40
v 7 3 -1
v 7 3 -7
v 7 3 -40
v 39 79 32
v 39 79 31
v 39 80 32
v 39 80 31
v -7 2 40
v -7 2 15
v -7 2 14
v -7 2 11
v -7 2 2
v -7 2 -1
v -7 2 -2
v -7 2 -9
v -7 2 -10
v -7 2 -40
v -7 3 40
v -7 3 15
v -7 3 14
v -7 3 11
v -7 3 2
v -7 3 -1
v -7 3 -2
v -7 3 -9
v -7 3 -10
v -7 3 -40
v 40 0 40
v 40 0 -40
v 40 2 40
v 40 2 -40
v 40 3 40
v 40 3 -40
v 40 79 32
v 40 79 31
v 40 80 32
v 40 80 31
v -40 0 40
v -40 2 40
v -40 3 40
v -7 1 40
v -7 2 40
v -7 3 40
v 7 1 40
v 7 2 40
v 7 3 40
v 40 0 40
v 40 2 40
v 40 3 40
v 39 79 32
v 39 80 32
v 40 79 32
v 40 80 32
v 39 79 31
v 39 80 31
v 40 79 31
v 40 80 31
v -40 0 -40
v -40 2 -40
v -40 3 -40
v -7 1 -40
v -7 2 -40
v -7 3 -40
v 7 1 -40
v 7 2 -40
v 7 3 -40
v 40 0 -40
v 40 2 -40
v 40 3 -40
v -40 0 40
v 40 0 40
v -20 0 20
v 20 0 20
v -15 0 1
v -14 0 1
v -15 0 -6
v -14 0 -6
v -20 0 -20
v 20 0 -20
v -40 0 -40
v 40 0 -40
v 39 79 32
v 40 79 32
v 39 79 31
v 40 79 31
v -7 2 40
v 7 2 40
v -7 2 15
v -7 2 14
v -7 2 11
v -7 2 2
v -7 2 -1
v 7 2 -1
v -7 2 -2
v 7 2 -7
v -7 2 -9
v -7 2 -10
v -7 2 -40
v 7 2 -40
v -40 3 40
v -7 3 40
v 7 3 40
v 40 3 40
v 10 3 19
v 11 3 19
v 10 3 18
v 11 3 18
v 12 3 18
v 11 3 17
v 12 3 17
v 13 3 17
v 13 3 16
v 15 3 16
v -20 3 15
v -19 3 15
v -16 3 15
v -8 3 15
v -7 3 15
v -19 3 14
v -18 3 14
v -16 3 14
v -14 3 14
v -8 3 14
v -7 3 14
v -18 3 13
v -17 3 13
v -15 3 13
v -14 3 13
v -13 3 13
v 11 3 12
v 12 3 12
v -15 3 11
v -14 3 11
v -11 3 11
v -7 3 11
v 10 3 11
v 11 3 11
v -15 3 10
v -14 3 10
v -12 3 10
v -11 3 10
v 10 3 10
v 15 3 10
v -15 3 9
v -13 3 9
v -12 3 9
v -11 3 9
v -10 3 9
v -9 3 9
v -10 3 8
v -9 3 8
v 19 3 7
v 20 3 7
v 10 3 6
v 11 3 6
v 19 3 6
v 20 3 6
v -9 3 5
v -8 3 5
v 10 3 5
v 11 3 5
v -9 3 4
v -8 3 4
v -20 3 2
v -18 3 2
v -17 3 2
v -12 3 2
v -10 3 2
v -7 3 2
v 9 3 2
v 10 3 2
v 15 3 2
v 17 3 2
v -18 3 1
v -17 3 1
v -9 3 1
v -8 3 1
v 9 3 1
v 10 3 1
v 17 3 1
v 18 3 1
v -20 3 -0
v -19 3 -0
v -9 3 -0
v -8 3 -0
v 8 3 -0
v 9 3 -0
v 10 3 -0
v -20 3 -1
v -19 3 -1
v -13 3 -1
v -12 3 -1
v -10 3 -1
v -7 3 -1
v 7 3 -1
v 8 3 -1
v 9 3 -1
v 10 3 -1
v -18 3 -2
v -17 3 -2
v -14 3 -2
v -13 3 -2
v -11 3 -2
v -7 3 -2
v -20 3 -3
v -18 3 -3
v -15 3 -3
v -14 3 -3
v 15 3 -3
v 18 3 -3
v -18 3 -4
v -15 3 -4
v -14 3 -4
v -11 3 -5
v -10 3 -5
v -11 3 -6
v -10 3 -6
v -15 3 -7
v -14 3 -7
v 7 3 -7
v 9 3 -7
v -19 3 -8
v -18 3 -8
v -15 3 -9
v -14 3 -9
v -8 3 -9
v -7 3 -9
v -16 3 -10
v -15 3 -10
v -8 3 -10
v -7 3 -10
v -17 3 -11
v -16 3 -11
v 11 3 -11
v 12 3 -11
v -18 3 -12
v -17 3 -12
v 11 3 -12
v 12 3 -12
v 10 3 -13
v 11 3 -13
v 10 3 -14
v 11 3 -14
v -14 3 -15
v -13 3 -15
v -14 3 -16
v -13 3 -16
v 13 3 -17
v 14 3 -17
v 16 3 -17
v 17 3 -17
v -15 3 -18
v -14 3 -18
v 13 3 -18
v 14 3 -18
v 16 3 -18
v 17 3 -18
v -16 3 -19
v -15 3 -19
v -14 3 -19
v -20 3 -20
v -19 3 -20
v -16 3 -20
v -15 3 -20
v -40 3 -40
v -7 3 -40
v 7 3 -40
v 40 3 -40
v 39 80 32
v 40 80 32
v 39 80 31
v 40 80 31

# faces
f 3/1/1 2/1/1 1/1/1
f 4/1/1 2/1/1 3/1/1
f 5/4/1 4/4/1 3/4/1
f 6/4/1 4/4/1 5/4/1
f 11/4/1 8/4/1 7/4/1
f 12/6/1 9/6/1 8/6/1
f 12/4/1 8/4/1 11/4/1
f 13/4/1 10/4/1 9/4/1
f 13/6/1 9/6/1 12/6/1
f 14/4/1 10/4/1 13/4/1
f 17/1/1 16/1/1 15/1/1
f 18/1/1 16/1/1 17/1/1
f 19/4/2 20/4/2 29/4/2
f 20/6/2 21/6/2 30/6/2
f 29/4/2 20/4/2 30/4/2
f 21/4/2 22/4/2 31/4/2
f 30/6/2 21/6/2 31/6/2
f 22/5/2 23/5/2 32/5/2
f 31/4/2 22/4/2 32/4/2
f 23/3/2 24/3/2 33/3/2
f 32/5/2 23/5/2 33/5/2
f 24/5/2 25/5/2 34/5/2
f 33/3/2 24/3/2 34/3/2
f 25/4/2 26/4/2 35/4/2
f 34/5/2 25/5/2 35/5/2
f 26/6/2 27/6/2 36/6/2
f 35/4/2 26/4/2 36/4/2
f 27/4/2 28/4/2 37/4/2
f 36/6/2 27/6/2 37/6/2
f 37/4/2 28/4/2 38/4/2
f 39/1/2 40/1/2 41/1/2
f 41/1/2 40/1/2 42/1/2
f 41/4/2 42/4/2 43/4/2
f 43/4/2 42/4/2 44/4/2
f 45/1/2 46/1/2 47/1/2
f 47/1/2 46/1/2 48/1/2
f 52/1/3 50/1/3 49/1/3
f 53/4/3 51/4/3 50/4/3
f 53/1/3 50/1/3 52/1/3
f 54/4/3 51/4/3 53/4/3
f 55/1/3 52/1/3 49/1/3
f 55/7/3 53/7/3 52/7/3
f 56/7/3 53/7/3 55/7/3
f 58/1/3 55/1/3 49/1/3
f 58/1/3 56/1/3 55/1/3
f 59/4/3 57/4/3 56/4/3
f 59/1/3 56/1/3 58/1/3
f 60/4/3 57/4/3 59/4/3
f 63/1/3 62/1/3 61/1/3
f 64/1/3 62/1/3 63/1/3
f 65/1/4 66/1/4 67/1/4
f 67/1/4 66/1/4 68/1/4
f 69/1/4 70/1/4 72/1/4
f 70/4/4 71/4/4 73/4/4
f 72/1/4 70/1/4 73/1/4
f 73/4/4 71/4/4 74/4/4
f 69/1/4 72/1/4 75/1/4
f 72/7/4 73/7/4 75/7/4
f 75/7/4 73/7/4 76/7/4
f 69/1/4 75/1/4 78/1/4
f 75/1/4 76/1/4 78/1/4
f 76/4/4 77/4/4 79/4/4
f 78/1/4 76/1/4 79/1/4
f 79/4/4 77/4/4 80/4/4
f 83/1/5 82/1/5 81/1/5
f 84/1/5 82/1/5 83/1/5
f 85/2/5 84/2/5 83/2/5
f 86/2/5 84/2/5 85/2/5
f 87/2/5 85/2/5 83/2/5
f 87/6/5 86/6/5 85/6/5
f 88/2/5 84/2/5 86/2/5
f 88/6/5 86/6/5 87/6/5
f 89/1/5 83/1/5 81/1/5
f 89/2/5 87/2/5 83/2/5
f 89/2/5 88/2/5 87/2/5
f 90/2/5 84/2/5 88/2/5
f 90/2/5 88/2/5 89/2/5
f 90/1/5 82/1/5 84/1/5
f 91/1/5 89/1/5 81/1/5
f 91/1/5 90/1/5 89/1/5
f 92/1/5 82/1/5 90/1/5
f 92/1/5 90/1/5 91/1/5
f 95/1/5 94/1/5 93/1/5
f 96/1/5 94/1/5 95/1/5
f 97/7/6 98/7/6 99/7/6
f 99/7/6 98/7/6 100/7/6
f 100/7/6 98/7/6 101/7/6
f 101/7/6 98/7/6 102/7/6
f 102/7/6 98/7/6 103/7/6
f 103/7/6 98/7/6 104/7/6
f 103/7/6 104/7/6 105/7/6
f 105/7/6 104/7/6 106/7/6
f 105/7/6 106/7/6 107/7/6
f 107/7/6 106/7/6 108/7/6
f 108/7/6 106/7/6 109/7/6
f 109/7/6 106/7/6 110/7/6
f 113/4/6 114/4/6 115/4/6
f 115/4/6 114/4/6 116/4/6
f 113/4/6 115/4/6 117/4/6
f 115/5/6 116/5/6 117/5/6
f 116/4/6 114/4/6 118/4/6
f 117/5/6 116/5/6 118/5/6
f 118/4/6 114/4/6 119/4/6
f 117/4/6 118/4/6 120/4/6
f 118/5/6 119/5/6 120/5/6
f 119/4/6 114/4/6 121/4/6
f 120/5/6 119/5/6 121/5/6
f 121/4/6 114/4/6 122/4/6
f 121/5/6 122/5/6 123/5/6
f 122/4/6 114/4/6 123/4/6
f 123/4/6 114/4/6 124/4/6
f 111/4/6 112/4/6 125/4/6
f 125/4/6 112/4/6 126/4/6
f 126/4/6 112/4/6 127/4/6
f 127/4/6 112/4/6 128/4/6
f 128/4/6 112/4/6 129/4/6
f 125/6/6 126/6/6 130/6/6
f 126/3/6 127/3/6 130/3/6
f 130/3/6 127/3/6 131/3/6
f 127/4/6 128/4/6 132/4/6
f 131/3/6 127/3/6 132/3/6
f 132/4/6 128/4/6 133/4/6
f 128/6/6 129/6/6 134/6/6
f 133/4/6 128/4/6 134/4/6
f 134/6/6 129/6/6 135/6/6
f 132/3/6 133/3/6 136/3/6
f 130/6/6 131/6/6 136/6/6
f 131/3/6 132/3/6 136/3/6
f 136/3/6 133/3/6 137/3/6
f 137/3/6 133/3/6 138/3/6
f 134/4/6 135/4/6 139/4/6
f 138/3/6 133/3/6 139/3/6
f 133/4/6 134/4/6 139/4/6
f 139/4/6 135/4/6 140/4/6
f 117/4/6 120/4/6 141/4/6
f 120/4/6 121/4/6 141/4/6
f 121/5/6 123/5/6 142/5/6
f 141/4/6 121/4/6 142/4/6
f 123/5/6 124/5/6 142/5/6
f 139/5/6 140/5/6 143/5/6
f 138/5/6 139/5/6 143/5/6
f 137/4/6 138/4/6 143/4/6
f 143/5/6 140/5/6 144/5/6
f 140/4/6 135/4/6 145/4/6
f 145/4/6 135/4/6 146/4/6
f 113/4/6 117/4/6 147/4/6
f 117/4/6 141/4/6 147/4/6
f 141/5/6 142/5/6 148/5/6
f 147/4/6 141/4/6 148/4/6
f 137/4/6 143/4/6 149/4/6
f 143/3/6 144/3/6 149/3/6
f 144/5/6 140/5/6 150/5/6
f 149/3/6 144/3/6 150/3/6
f 140/4/6 145/4/6 151/4/6
f 145/5/6 146/5/6 152/5/6
f 151/4/6 145/4/6 152/4/6
f 113/4/6 147/4/6 153/4/6
f 147/5/6 148/5/6 153/5/6
f 124/4/6 114/4/6 154/4/6
f 153/5/6 148/5/6 154/5/6
f 142/5/6 124/5/6 154/5/6
f 148/5/6 142/5/6 154/5/6
f 137/4/6 149/4/6 155/4/6
f 149/5/6 150/5/6 155/5/6
f 140/4/6 151/4/6 156/4/6
f 155/5/6 150/5/6 156/5/6
f 150/5/6 140/5/6 156/5/6
f 151/3/6 152/3/6 157/3/6
f 156/4/6 151/4/6 157/4/6
f 152/5/6 146/5/6 158/5/6
f 157/3/6 152/3/6 158/3/6
f 158/5/6 146/5/6 159/5/6
f 159/5/6 146/5/6 160/5/6
f 158/5/6 159/5/6 161/5/6
f 159/3/6 160/3/6 161/3/6
f 160/5/6 146/5/6 162/5/6
f 161/3/6 160/3/6 162/3/6
f 154/4/6 114/4/6 163/4/6
f 153/4/6 154/4/6 163/4/6
f 163/4/6 114/4/6 164/4/6
f 113/4/6 153/4/6 165/4/6
f 153/4/6 163/4/6 165/4/6
f 165/4/6 163/4/6 166/4/6
f 163/6/6 164/6/6 167/6/6
f 166/4/6 163/4/6 167/4/6
f 164/4/6 114/4/6 168/4/6
f 167/6/6 164/6/6 168/6/6
f 162/5/6 146/5/6 169/5/6
f 161/5/6 162/5/6 169/5/6
f 169/5/6 146/5/6 170/5/6
f 165/3/6 166/3/6 171/3/6
f 113/4/6 165/4/6 171/4/6
f 166/4/6 167/4/6 172/4/6
f 171/3/6 166/3/6 172/3/6
f 167/4/6 168/4/6 172/4/6
f 161/5/6 169/5/6 173/5/6
f 169/3/6 170/3/6 173/3/6
f 170/5/6 146/5/6 174/5/6
f 173/3/6 170/3/6 174/3/6
f 136/6/6 137/6/6 175/6/6
f 111/4/6 125/4/6 175/4/6
f 130/6/6 136/6/6 175/6/6
f 125/6/6 130/6/6 175/6/6
f 175/6/6 137/6/6 176/6/6
f 137/4/6 155/4/6 177/4/6
f 176/6/6 137/6/6 177/6/6
f 155/4/6 156/4/6 177/4/6
f 156/4/6 157/4/6 177/4/6
f 157/4/6 158/4/6 177/4/6
f 177/4/6 158/4/6 178/4/6
f 173/5/6 174/5/6 179/5/6
f 158/5/6 161/5/6 179/5/6
f 161/5/6 173/5/6 179/5/6
f 174/5/6 146/5/6 180/5/6
f 179/5/6 174/5/6 180/5/6
f 113/4/6 171/4/6 181/4/6
f 171/4/6 172/4/6 181/4/6
f 181/4/6 172/4/6 182/4/6
f 172/4/6 168/4/6 183/4/6
f 182/4/6 172/4/6 183/4/6
f 183/4/6 168/4/6 184/4/6
f 175/3/6 176/3/6 185/3/6
f 177/6/6 178/6/6 185/6/6
f 176/6/6 177/6/6 185/6/6
f 185/6/6 178/6/6 186/6/6
f 179/3/6 180/3/6 187/3/6
f 187/3/6 180/3/6 188/3/6
f 181/3/6 182/3/6 189/3/6
f 113/4/6 181/4/6 189/4/6
f 182/4/6 183/4/6 190/4/6
f 189/3/6 182/3/6 190/3/6
f 184/4/6 168/4/6 191/4/6
f 183/5/6 184/5/6 191/5/6
f 191/4/6 168/4/6 192/4/6
f 111/4/6 175/4/6 193/4/6
f 175/3/6 185/3/6 193/3/6
f 185/3/6 186/3/6 193/3/6
f 193/3/6 186/3/6 194/3/6
f 187/5/6 188/5/6 195/5/6
f 179/3/6 187/3/6 195/3/6
f 188/3/6 180/3/6 196/3/6
f 195/5/6 188/5/6 196/5/6
f 189/4/6 190/4/6 197/4/6
f 113/4/6 189/4/6 197/4/6
f 197/4/6 190/4/6 198/4/6
f 190/4/6 183/4/6 199/4/6
f 198/4/6 190/4/6 199/4/6
f 193/6/6 194/6/6 200/6/6
f 111/4/6 193/4/6 200/4/6
f 194/3/6 186/3/6 201/3/6
f 200/6/6 194/6/6 201/6/6
f 186/6/6 178/6/6 202/6/6
f 178/4/6 158/4/6 203/4/6
f 202/6/6 178/6/6 203/6/6
f 179/3/6 195/3/6 204/3/6
f 158/5/6 179/5/6 204/5/6
f 195/3/6 196/3/6 204/3/6
f 196/3/6 180/3/6 205/3/6
f 204/3/6 196/3/6 205/3/6
f 113/4/6 197/4/6 206/4/6
f 197/6/6 198/6/6 207/6/6
f 206/4/6 197/4/6 207/4/6
f 198/3/6 199/3/6 208/3/6
f 207/6/6 198/6/6 208/6/6
f 199/4/6 183/4/6 209/4/6
f 208/3/6 199/3/6 209/3/6
f 201/3/6 186/3/6 210/3/6
f 200/3/6 201/3/6 210/3/6
f 186/6/6 202/6/6 211/6/6
f 210/3/6 186/3/6 211/3/6
f 211/6/6 202/6/6 212/6/6
f 202/4/6 203/4/6 213/4/6
f 212/6/6 202/6/6 213/6/6
f 203/4/6 158/4/6 214/4/6
f 213/4/6 203/4/6 214/4/6
f 158/5/6 204/5/6 214/5/6
f 204/5/6 205/5/6 214/5/6
f 214/5/6 205/5/6 215/5/6
f 200/3/6 210/3/6 216/3/6
f 111/4/6 200/4/6 216/4/6
f 211/6/6 212/6/6 217/6/6
f 216/3/6 210/3/6 217/3/6
f 210/6/6 211/6/6 217/6/6
f 217/6/6 212/6/6 218/6/6
f 212/4/6 213/4/6 219/4/6
f 218/6/6 212/6/6 219/6/6
f 213/4/6 214/4/6 219/4/6
f 214/4/6 215/4/6 219/4/6
f 209/4/6 183/4/6 220/4/6
f 208/4/6 209/4/6 220/4/6
f 191/5/6 192/5/6 220/5/6
f 183/5/6 191/5/6 220/5/6
f 192/4/6 168/4/6 221/4/6
f 220/5/6 192/5/6 221/5/6
f 217/6/6 218/6/6 222/6/6
f 216/6/6 217/6/6 222/6/6
f 218/4/6 219/4/6 223/4/6
f 222/6/6 218/6/6 223/6/6
f 219/4/6 215/4/6 224/4/6
f 223/4/6 219/4/6 224/4/6
f 224/4/6 215/4/6 225/4/6
f 225/4/6 215/4/6 226/4/6
f 224/4/6 225/4/6 227/4/6
f 225/5/6 226/5/6 227/5/6
f 226/4/6 215/4/6 228/4/6
f 227/5/6 226/5/6 228/5/6
f 222/5/6 223/5/6 229/5/6
f 223/6/6 224/6/6 229/6/6
f 227/4/6 228/4/6 230/4/6
f 229/6/6 224/6/6 230/6/6
f 224/4/6 227/4/6 230/4/6
f 207/6/6 208/6/6 231/6/6
f 206/6/6 207/6/6 231/6/6
f 208/4/6 220/4/6 232/4/6
f 231/6/6 208/6/6 232/6/6
f 220/4/6 221/4/6 232/4/6
f 216/6/6 222/6/6 233/6/6
f 222/5/6 229/5/6 234/5/6
f 233/6/6 222/6/6 234/6/6
f 229/5/6 230/5/6 234/5/6
f 234/5/6 230/5/6 235/5/6
f 230/4/6 228/4/6 236/4/6
f 235/5/6 230/5/6 236/5/6
f 228/4/6 215/4/6 237/4/6
f 236/4/6 228/4/6 237/4/6
f 237/4/6 215/4/6 238/4/6
f 234/5/6 235/5/6 239/5/6
f 235/4/6 236/4/6 240/4/6
f 239/5/6 235/5/6 240/5/6
f 236/4/6 237/4/6 240/4/6
f 237/6/6 238/6/6 241/6/6
f 240/4/6 237/4/6 241/4/6
f 241/6/6 238/6/6 242/6/6
f 234/5/6 239/5/6 243/5/6
f 239/4/6 240/4/6 244/4/6
f 243/5/6 239/5/6 244/5/6
f 240/4/6 241/4/6 244/4/6
f 241/4/6 242/4/6 244/4/6
f 232/4/6 221/4/6 245/4/6
f 231/4/6 232/4/6 245/4/6
f 245/4/6 221/4/6 246/4/6
f 234/5/6 243/5/6 247/5/6
f 233/4/6 234/4/6 247/4/6
f 243/4/6 244/4/6 248/4/6
f 247/5/6 243/5/6 248/5/6
f 245/3/6 246/3/6 249/3/6
f 231/4/6 245/4/6 249/4/6
f 246/4/6 221/4/6 250/4/6
f 249/3/6 246/3/6 250/3/6
f 231/4/6 249/4/6 251/4/6
f 249/4/6 250/4/6 251/4/6
f 251/4/6 250/4/6 252/4/6
f 231/4/6 251/4/6 253/4/6
f 251/3/6 252/3/6 253/3/6
f 252/4/6 250/4/6 254/4/6
f 253/3/6 252/3/6 254/3/6
f 244/4/6 242/4/6 255/4/6
f 248/4/6 244/4/6 255/4/6
f 247/4/6 248/4/6 255/4/6
f 255/4/6 242/4/6 256/4/6
f 247/4/6 255/4/6 257/4/6
f 255/6/6 256/6/6 257/6/6
f 256/4/6 242/4/6 258/4/6
f 257/6/6 256/6/6 258/6/6
f 254/4/6 250/4/6 259/4/6
f 250/4/6 221/4/6 259/4/6
f 253/4/6 254/4/6 259/4/6
f 259/4/6 221/4/6 260/4/6
f 260/4/6 221/4/6 261/4/6
f 261/4/6 221/4/6 262/4/6
f 257/4/6 258/4/6 263/4/6
f 247/4/6 257/4/6 263/4/6
f 263/4/6 258/4/6 264/4/6
f 253/4/6 259/4/6 265/4/6
f 259/3/6 260/3/6 265/3/6
f 260/4/6 261/4/6 266/4/6
f 265/3/6 260/3/6 266/3/6
f 261/3/6 262/3/6 267/3/6
f 266/4/6 261/4/6 267/4/6
f 262/4/6 221/4/6 268/4/6
f 267/3/6 262/3/6 268/3/6
f 247/4/6 263/4/6 269/4/6
f 263/6/6 264/6/6 270/6/6
f 269/4/6 263/4/6 270/4/6
f 264/4/6 258/4/6 271/4/6
f 270/6/6 264/6/6 271/6/6
f 111/4/6 216/4/6 272/4/6
f 216/6/6 233/6/6 272/6/6
f 233/4/6 247/4/6 273/4/6
f 272/6/6 233/6/6 273/6/6
f 247/4/6 269/4/6 273/4/6
f 269/6/6 270/6/6 274/6/6
f 273/4/6 269/4/6 274/4/6
f 270/4/6 271/4/6 275/4/6
f 274/6/6 270/6/6 275/6/6
f 111/4/6 272/4/6 276/4/6
f 273/4/6 274/4/6 276/4/6
f 274/4/6 275/4/6 276/4/6
f 272/4/6 273/4/6 276/4/6
f 258/4/6 242/4/6 277/4/6
f 276/4/6 275/4/6 277/4/6
f 271/4/6 258/4/6 277/4/6
f 275/4/6 271/4/6 277/4/6
f 267/4/6 268/4/6 278/4/6
f 253/4/6 265/4/6 278/4/6
f 231/4/6 253/4/6 278/4/6
f 265/4/6 266/4/6 278/4/6
f 266/4/6 267/4/6 278/4/6
f 168/4/6 114/4/6 279/4/6
f 278/4/6 268/4/6 279/4/6
f 221/4/6 168/4/6 279/4/6
f 268/4/6 221/4/6 279/4/6
f 280/1/6 281/1/6 282/1/6
f 282/1/6 281/1/6 283/1/6
