# MagicaVoxel @ Ephtracy

# group
g sharpCorner

# material
mtllib sharpCorner.mtl
usemtl palette

# normals
vn -1 0 0
vn 1 0 0
vn 0 0 1
vn 0 0 -1
vn 0 -1 0
vn 0 1 0

# texcoords
vt 0.0371094 0.5
vt 0.306641 0.5
vt 0.630859 0.5
vt 0.650391 0.5
vt 0.654297 0.5
vt 0.900391 0.5
vt 0.958984 0.5
vt 0.986328 0.5

# verts
v -40 0 40
v -40 0 -40
v -40 2 40
v -40 2 -40
v -40 3 40
v -40 3 -40
v 7 2 40
v 7 2 20
v 7 2 19
v 7 2 17
v 7 3 40
v 7 3 20
v 7 3 19
v 7 3 17
v 8 2 17
v 8 2 14
v 8 3 17
v 8 3 14
v 9 2 14
v 9 2 13
v 9 3 14
v 9 3 13
v 10 2 13
v 10 2 11
v 10 3 13
v 10 3 11
v 11 2 11
v 11 2 10
v 11 3 11
v 11 3 10
v 13 2 10
v 13 2 9
v 13 3 10
v 13 3 9
v 14 2 9
v 14 2 8
v 14 3 9
v 14 3 8
v 17 2 8
v 17 2 7
v 17 3 8
v 17 3 7
v -7 2 40
v -7 2 20
v -7 2 17
v -7 2 15
v -7 2 14
v -7 2 12
v -7 2 11
v -7 2 4
v -7 3 40
v -7 3 20
v -7 3 17
v -7 3 15
v -7 3 14
v -7 3 12
v -7 3 11
v -7 3 4
v -6 2 4
v -6 2 1
v -6 3 4
v -6 3 1
v -5 2 1
v -5 2 -1
v -5 3 1
v -5 3 -1
v -4 2 -1
v -4 2 -2
v -4 3 -1
v -4 3 -2
v -3 2 -2
v -3 2 -3
v -3 3 -2
v -3 3 -3
v -2 2 -3
v -2 2 -4
v -2 3 -3
v -2 3 -4
v -1 2 -4
v -1 2 -5
v -1 3 -4
v -1 3 -5
v 1 2 -5
v 1 2 -6
v 1 3 -5
v 1 3 -6
v 4 2 -6
v 4 2 -7
v 4 3 -6
v 4 3 -7
v 40 0 40
v 40 0 -40
v 40 1 7
v 40 1 -7
v 40 2 40
v 40 2 7
v 40 2 -7
v 40 2 -40
v 40 3 40
v 40 3 7
v 40 3 -7
v 40 3 -40
v -40 0 40
v -40 2 40
v -40 3 40
v -7 1 40
v -7 2 40
v -7 3 40
v 7 1 40
v 7 2 40
v 7 3 40
v 40 0 40
v 40 2 40
v 40 3 40
v -7 2 4
v -7 3 4
v -6 2 4
v -6 3 4
v -6 2 1
v -6 3 1
v -5 2 1
v -5 3 1
v -5 2 -1
v -5 3 -1
v -4 2 -1
v -4 3 -1
v -4 2 -2
v -4 3 -2
v -3 2 -2
v -3 3 -2
v -3 2 -3
v -3 3 -3
v -2 2 -3
v -2 3 -3
v -2 2 -4
v -2 3 -4
v -1 2 -4
v -1 3 -4
v -1 2 -5
v -1 3 -5
v 1 2 -5
v 1 3 -5
v 1 2 -6
v 1 3 -6
v 4 2 -6
v 4 3 -6
v 4 2 -7
v 4 3 -7
v 6 2 -7
v 6 3 -7
v 7 2 -7
v 7 3 -7
v 12 2 -7
v 12 3 -7
v 20 2 -7
v 20 3 -7
v 40 2 -7
v 40 3 -7
v 7 2 17
v 7 3 17
v 8 2 17
v 8 3 17
v 8 2 14
v 8 3 14
v 9 2 14
v 9 3 14
v 9 2 13
v 9 3 13
v 10 2 13
v 10 3 13
v 10 2 11
v 10 3 11
v 11 2 11
v 11 3 11
v 11 2 10
v 11 3 10
v 13 2 10
v 13 3 10
v 13 2 9
v 13 3 9
v 14 2 9
v 14 3 9
v 14 2 8
v 14 3 8
v 17 2 8
v 17 3 8
v 17 2 7
v 17 3 7
v 20 2 7
v 20 3 7
v 40 2 7
v 40 3 7
v -40 0 -40
v -40 2 -40
v -40 3 -40
v 40 0 -40
v 40 2 -40
v 40 3 -40
v -40 0 40
v 40 0 40
v -20 0 20
v 20 0 20
v -20 0 -20
v 20 0 -20
v -40 0 -40
v 40 0 -40
v -7 2 40
v 7 2 40
v -7 2 20
v 7 2 20
v 7 2 19
v -7 2 17
v 7 2 17
v 8 2 17
v -7 2 15
v -7 2 14
v 8 2 14
v 9 2 14
v 9 2 13
v 10 2 13
v -7 2 12
v -7 2 11
v 10 2 11
v 11 2 11
v 11 2 10
v 13 2 10
v 13 2 9
v 14 2 9
v 14 2 8
v 17 2 8
v 17 2 7
v 20 2 7
v 40 2 7
v -7 2 4
v -6 2 4
v -6 2 1
v -5 2 1
v -5 2 -1
v -4 2 -1
v -4 2 -2
v -3 2 -2
v -3 2 -3
v -2 2 -3
v -2 2 -4
v -1 2 -4
v -1 2 -5
v 1 2 -5
v 1 2 -6
v 4 2 -6
v 4 2 -7
v 6 2 -7
v 7 2 -7
v 12 2 -7
v 20 2 -7
v 40 2 -7
v -40 3 40
v -7 3 40
v 7 3 40
v 40 3 40
v -20 3 20
v -11 3 20
v -7 3 20
v 7 3 20
v 11 3 20
v 14 3 20
v 15 3 20
v 18 3 20
v 20 3 20
v 7 3 19
v 10 3 19
v 11 3 19
v 14 3 19
v 15 3 19
v -11 3 18
v -9 3 18
v 10 3 18
v 11 3 18
v 12 3 18
v 17 3 18
v 18 3 18
v -11 3 17
v -9 3 17
v -7 3 17
v 7 3 17
v 8 3 17
v 11 3 17
v 12 3 17
v 13 3 17
v 16 3 17
v 17 3 17
v -10 3 16
v -9 3 16
v 13 3 16
v 15 3 16
v 16 3 16
v -20 3 15
v -19 3 15
v -12 3 15
v -11 3 15
v -8 3 15
v -7 3 15
v -19 3 14
v -18 3 14
v -13 3 14
v -12 3 14
v -10 3 14
v -8 3 14
v -7 3 14
v 8 3 14
v 9 3 14
v -18 3 13
v -17 3 13
v -15 3 13
v -13 3 13
v -10 3 13
v -9 3 13
v 9 3 13
v 10 3 13
v -9 3 12
v -7 3 12
v 11 3 12
v 12 3 12
v 17 3 12
v 18 3 12
v 20 3 12
v -15 3 11
v -14 3 11
v -11 3 11
v -7 3 11
v 10 3 11
v 11 3 11
v 16 3 11
v 17 3 11
v -15 3 10
v -14 3 10
v -12 3 10
v -11 3 10
v 11 3 10
v 13 3 10
v 15 3 10
v 16 3 10
v -15 3 9
v -13 3 9
v -12 3 9
v -11 3 9
v -10 3 9
v -9 3 9
v 13 3 9
v 14 3 9
v 15 3 9
v -10 3 8
v -9 3 8
v 14 3 8
v 17 3 8
v 17 3 7
v 20 3 7
v 40 3 7
v -9 3 5
v -8 3 5
v -9 3 4
v -8 3 4
v -7 3 4
v -6 3 4
v -20 3 2
v -18 3 2
v -17 3 2
v -12 3 2
v -10 3 2
v -7 3 2
v -18 3 1
v -17 3 1
v -9 3 1
v -8 3 1
v -6 3 1
v -5 3 1
v -20 3 -0
v -19 3 -0
v -9 3 -0
v -8 3 -0
v -20 3 -1
v -19 3 -1
v -10 3 -1
v -7 3 -1
v -5 3 -1
v -4 3 -1
v -18 3 -2
v -17 3 -2
v -11 3 -2
v -7 3 -2
v -4 3 -2
v -3 3 -2
v -20 3 -3
v -18 3 -3
v -3 3 -3
v -2 3 -3
v -18 3 -4
v -13 3 -4
v -12 3 -4
v -7 3 -4
v -2 3 -4
v -1 3 -4
v -1 3 -5
v 1 3 -5
v -9 3 -6
v -7 3 -6
v 1 3 -6
v 4 3 -6
v -10 3 -7
v -9 3 -7
v -3 3 -7
v 4 3 -7
v 6 3 -7
v 7 3 -7
v 12 3 -7
v 20 3 -7
v 40 3 -7
v -19 3 -8
v -18 3 -8
v -13 3 -8
v -10 3 -8
v 0 3 -9
v 1 3 -9
v 4 3 -9
v 5 3 -9
v -3 3 -10
v -1 3 -10
v 0 3 -10
v 1 3 -10
v 4 3 -10
v 5 3 -10
v 6 3 -10
v 11 3 -11
v 12 3 -11
v 13 3 -11
v -8 3 -12
v -3 3 -12
v 11 3 -12
v 12 3 -12
v 13 3 -12
v 14 3 -12
v -9 3 -13
v -8 3 -13
v -3 3 -13
v -2 3 -13
v -1 3 -13
v 3 3 -13
v 4 3 -13
v 10 3 -13
v 11 3 -13
v 14 3 -13
v 15 3 -13
v -10 3 -14
v -9 3 -14
v -2 3 -14
v -1 3 -14
v 3 3 -14
v 4 3 -14
v 10 3 -14
v 11 3 -14
v 15 3 -14
v 20 3 -14
v -16 3 -15
v -13 3 -15
v -6 3 -15
v -1 3 -15
v 7 3 -15
v 12 3 -15
v 20 3 -15
v -18 3 -16
v -17 3 -16
v -16 3 -16
v -13 3 -16
v -12 3 -16
v -18 3 -17
v -17 3 -17
v -12 3 -17
v -11 3 -17
v 9 3 -17
v 10 3 -17
v 13 3 -17
v 14 3 -17
v 16 3 -17
v 17 3 -17
v -15 3 -18
v -14 3 -18
v 10 3 -18
v 11 3 -18
v 13 3 -18
v 14 3 -18
v 16 3 -18
v 17 3 -18
v -15 3 -19
v -14 3 -19
v -10 3 -19
v -9 3 -19
v -6 3 -19
v -2 3 -19
v 9 3 -19
v 11 3 -19
v 12 3 -19
v -20 3 -20
v -19 3 -20
v -18 3 -20
v -11 3 -20
v -9 3 -20
v -2 3 -20
v 11 3 -20
v 20 3 -20
v -40 3 -40
v 40 3 -40

# faces
f 3/1/1 2/1/1 1/1/1
f 4/1/1 2/1/1 3/1/1
f 5/4/1 4/4/1 3/4/1
f 6/4/1 4/4/1 5/4/1
f 11/4/1 8/4/1 7/4/1
f 12/6/1 9/6/1 8/6/1
f 12/4/1 8/4/1 11/4/1
f 13/3/1 10/3/1 9/3/1
f 13/6/1 9/6/1 12/6/1
f 14/3/1 10/3/1 13/3/1
f 17/3/1 16/3/1 15/3/1
f 18/3/1 16/3/1 17/3/1
f 21/3/1 20/3/1 19/3/1
f 22/3/1 20/3/1 21/3/1
f 25/3/1 24/3/1 23/3/1
f 26/3/1 24/3/1 25/3/1
f 29/5/1 28/5/1 27/5/1
f 30/5/1 28/5/1 29/5/1
f 33/4/1 32/4/1 31/4/1
f 34/4/1 32/4/1 33/4/1
f 37/3/1 36/3/1 35/3/1
f 38/3/1 36/3/1 37/3/1
f 41/3/1 40/3/1 39/3/1
f 42/3/1 40/3/1 41/3/1
f 43/4/2 44/4/2 51/4/2
f 44/6/2 45/6/2 52/6/2
f 51/4/2 44/4/2 52/4/2
f 45/3/2 46/3/2 53/3/2
f 52/6/2 45/6/2 53/6/2
f 46/6/2 47/6/2 54/6/2
f 53/3/2 46/3/2 54/3/2
f 47/3/2 48/3/2 55/3/2
f 54/6/2 47/6/2 55/6/2
f 48/4/2 49/4/2 56/4/2
f 55/3/2 48/3/2 56/3/2
f 49/5/2 50/5/2 57/5/2
f 56/4/2 49/4/2 57/4/2
f 57/5/2 50/5/2 58/5/2
f 59/4/2 60/4/2 61/4/2
f 61/4/2 60/4/2 62/4/2
f 63/4/2 64/4/2 65/4/2
f 65/4/2 64/4/2 66/4/2
f 67/4/2 68/4/2 69/4/2
f 69/4/2 68/4/2 70/4/2
f 71/4/2 72/4/2 73/4/2
f 73/4/2 72/4/2 74/4/2
f 75/4/2 76/4/2 77/4/2
f 77/4/2 76/4/2 78/4/2
f 79/4/2 80/4/2 81/4/2
f 81/4/2 80/4/2 82/4/2
f 83/4/2 84/4/2 85/4/2
f 85/4/2 84/4/2 86/4/2
f 87/4/2 88/4/2 89/4/2
f 89/4/2 88/4/2 90/4/2
f 91/1/2 92/1/2 93/1/2
f 93/1/2 92/1/2 94/1/2
f 91/1/2 93/1/2 95/1/2
f 93/8/2 94/8/2 96/8/2
f 95/1/2 93/1/2 96/1/2
f 94/1/2 92/1/2 97/1/2
f 96/8/2 94/8/2 97/8/2
f 97/1/2 92/1/2 98/1/2
f 95/4/2 96/4/2 99/4/2
f 99/4/2 96/4/2 100/4/2
f 97/4/2 98/4/2 101/4/2
f 101/4/2 98/4/2 102/4/2
f 106/1/3 104/1/3 103/1/3
f 107/4/3 105/4/3 104/4/3
f 107/1/3 104/1/3 106/1/3
f 108/4/3 105/4/3 107/4/3
f 109/1/3 106/1/3 103/1/3
f 109/8/3 107/8/3 106/8/3
f 110/8/3 107/8/3 109/8/3
f 112/1/3 109/1/3 103/1/3
f 112/1/3 110/1/3 109/1/3
f 113/4/3 111/4/3 110/4/3
f 113/1/3 110/1/3 112/1/3
f 114/4/3 111/4/3 113/4/3
f 117/4/3 116/4/3 115/4/3
f 118/4/3 116/4/3 117/4/3
f 121/4/3 120/4/3 119/4/3
f 122/4/3 120/4/3 121/4/3
f 125/4/3 124/4/3 123/4/3
f 126/4/3 124/4/3 125/4/3
f 129/4/3 128/4/3 127/4/3
f 130/4/3 128/4/3 129/4/3
f 133/4/3 132/4/3 131/4/3
f 134/4/3 132/4/3 133/4/3
f 137/4/3 136/4/3 135/4/3
f 138/4/3 136/4/3 137/4/3
f 141/4/3 140/4/3 139/4/3
f 142/4/3 140/4/3 141/4/3
f 145/4/3 144/4/3 143/4/3
f 146/4/3 144/4/3 145/4/3
f 149/6/3 148/6/3 147/6/3
f 150/6/3 148/6/3 149/6/3
f 151/4/3 150/4/3 149/4/3
f 152/4/3 150/4/3 151/4/3
f 153/5/3 152/5/3 151/5/3
f 154/5/3 152/5/3 153/5/3
f 155/3/3 154/3/3 153/3/3
f 156/3/3 154/3/3 155/3/3
f 157/4/3 156/4/3 155/4/3
f 158/4/3 156/4/3 157/4/3
f 159/3/4 160/3/4 161/3/4
f 161/3/4 160/3/4 162/3/4
f 163/3/4 164/3/4 165/3/4
f 165/3/4 164/3/4 166/3/4
f 167/3/4 168/3/4 169/3/4
f 169/3/4 168/3/4 170/3/4
f 171/3/4 172/3/4 173/3/4
f 173/3/4 172/3/4 174/3/4
f 175/5/4 176/5/4 177/5/4
f 177/5/4 176/5/4 178/5/4
f 179/4/4 180/4/4 181/4/4
f 181/4/4 180/4/4 182/4/4
f 183/3/4 184/3/4 185/3/4
f 185/3/4 184/3/4 186/3/4
f 187/3/4 188/3/4 189/3/4
f 189/3/4 188/3/4 190/3/4
f 189/4/4 190/4/4 191/4/4
f 191/4/4 190/4/4 192/4/4
f 193/1/4 194/1/4 196/1/4
f 194/4/4 195/4/4 197/4/4
f 196/1/4 194/1/4 197/1/4
f 197/4/4 195/4/4 198/4/4
f 201/1/5 200/1/5 199/1/5
f 202/1/5 200/1/5 201/1/5
f 203/1/5 201/1/5 199/1/5
f 203/2/5 202/2/5 201/2/5
f 204/1/5 200/1/5 202/1/5
f 204/2/5 202/2/5 203/2/5
f 205/1/5 203/1/5 199/1/5
f 205/1/5 204/1/5 203/1/5
f 206/1/5 200/1/5 204/1/5
f 206/1/5 204/1/5 205/1/5
f 207/8/6 208/8/6 209/8/6
f 209/8/6 208/8/6 210/8/6
f 209/8/6 210/8/6 211/8/6
f 209/8/6 211/8/6 212/8/6
f 212/8/6 211/8/6 213/8/6
f 212/8/6 213/8/6 215/8/6
f 213/8/6 214/8/6 215/8/6
f 215/8/6 214/8/6 216/8/6
f 216/8/6 214/8/6 217/8/6
f 216/8/6 217/8/6 219/8/6
f 217/8/6 218/8/6 219/8/6
f 216/8/6 219/8/6 221/8/6
f 219/8/6 220/8/6 221/8/6
f 221/8/6 220/8/6 222/8/6
f 222/8/6 220/8/6 223/8/6
f 222/8/6 223/8/6 225/8/6
f 223/8/6 224/8/6 225/8/6
f 225/8/6 226/8/6 227/8/6
f 227/8/6 228/8/6 229/8/6
f 229/8/6 230/8/6 231/8/6
f 222/8/6 225/8/6 234/8/6
f 232/8/6 233/8/6 234/8/6
f 231/8/6 232/8/6 234/8/6
f 229/8/6 231/8/6 234/8/6
f 227/8/6 229/8/6 234/8/6
f 225/8/6 227/8/6 234/8/6
f 234/8/6 233/8/6 235/8/6
f 235/8/6 233/8/6 236/8/6
f 236/8/6 233/8/6 237/8/6
f 237/8/6 233/8/6 238/8/6
f 238/8/6 233/8/6 239/8/6
f 239/8/6 233/8/6 240/8/6
f 240/8/6 233/8/6 241/8/6
f 241/8/6 233/8/6 242/8/6
f 242/8/6 233/8/6 243/8/6
f 243/8/6 233/8/6 244/8/6
f 244/8/6 233/8/6 245/8/6
f 245/8/6 233/8/6 246/8/6
f 246/8/6 233/8/6 247/8/6
f 247/8/6 233/8/6 248/8/6
f 248/8/6 233/8/6 249/8/6
f 249/8/6 233/8/6 250/8/6
f 250/8/6 233/8/6 251/8/6
f 251/8/6 233/8/6 252/8/6
f 252/8/6 233/8/6 253/8/6
f 253/8/6 233/8/6 254/8/6
f 254/8/6 233/8/6 255/8/6
f 256/4/6 257/4/6 260/4/6
f 260/4/6 257/4/6 261/4/6
f 261/4/6 257/4/6 262/4/6
f 258/4/6 259/4/6 263/4/6
f 263/4/6 259/4/6 264/4/6
f 264/4/6 259/4/6 265/4/6
f 265/4/6 259/4/6 266/4/6
f 266/4/6 259/4/6 267/4/6
f 267/4/6 259/4/6 268/4/6
f 263/6/6 264/6/6 269/6/6
f 269/6/6 264/6/6 270/6/6
f 264/3/6 265/3/6 271/3/6
f 270/6/6 264/6/6 271/6/6
f 265/6/6 266/6/6 272/6/6
f 271/3/6 265/3/6 272/3/6
f 266/3/6 267/3/6 273/3/6
f 272/6/6 266/6/6 273/6/6
f 261/6/6 262/6/6 274/6/6
f 260/3/6 261/3/6 274/3/6
f 274/6/6 262/6/6 275/6/6
f 269/3/6 270/3/6 276/3/6
f 270/5/6 271/5/6 276/5/6
f 272/3/6 273/3/6 277/3/6
f 276/5/6 271/5/6 277/5/6
f 271/3/6 272/3/6 277/3/6
f 277/3/6 273/3/6 278/3/6
f 273/3/6 267/3/6 279/3/6
f 278/3/6 273/3/6 279/3/6
f 267/6/6 268/6/6 280/6/6
f 279/3/6 267/3/6 280/3/6
f 274/3/6 275/3/6 281/3/6
f 260/3/6 274/3/6 281/3/6
f 275/6/6 262/6/6 282/6/6
f 281/3/6 275/3/6 282/3/6
f 282/6/6 262/6/6 283/6/6
f 269/3/6 276/3/6 284/3/6
f 276/3/6 277/3/6 284/3/6
f 284/3/6 277/3/6 285/3/6
f 277/5/6 278/5/6 286/5/6
f 285/3/6 277/3/6 286/3/6
f 278/3/6 279/3/6 287/3/6
f 286/5/6 278/5/6 287/5/6
f 287/3/6 279/3/6 288/3/6
f 288/3/6 279/3/6 289/3/6
f 279/4/6 280/4/6 290/4/6
f 289/3/6 279/3/6 290/3/6
f 281/6/6 282/6/6 291/6/6
f 282/3/6 283/3/6 292/3/6
f 291/6/6 282/6/6 292/6/6
f 288/3/6 289/3/6 293/3/6
f 287/5/6 288/5/6 293/5/6
f 293/3/6 289/3/6 294/3/6
f 289/4/6 290/4/6 295/4/6
f 294/3/6 289/3/6 295/3/6
f 256/4/6 260/4/6 296/4/6
f 260/3/6 281/3/6 296/3/6
f 296/3/6 281/3/6 297/3/6
f 297/3/6 281/3/6 298/3/6
f 281/6/6 291/6/6 299/6/6
f 298/3/6 281/3/6 299/3/6
f 292/3/6 283/3/6 300/3/6
f 291/3/6 292/3/6 300/3/6
f 300/3/6 283/3/6 301/3/6
f 297/3/6 298/3/6 302/3/6
f 296/6/6 297/6/6 302/6/6
f 302/3/6 298/3/6 303/3/6
f 303/3/6 298/3/6 304/3/6
f 298/6/6 299/6/6 305/6/6
f 304/3/6 298/3/6 305/3/6
f 299/6/6 291/6/6 306/6/6
f 305/6/6 299/6/6 306/6/6
f 291/3/6 300/3/6 306/3/6
f 300/6/6 301/6/6 307/6/6
f 306/3/6 300/3/6 307/3/6
f 307/6/6 301/6/6 308/6/6
f 285/3/6 286/3/6 309/3/6
f 286/3/6 287/3/6 309/3/6
f 309/3/6 287/3/6 310/3/6
f 303/3/6 304/3/6 311/3/6
f 302/6/6 303/6/6 311/6/6
f 311/3/6 304/3/6 312/3/6
f 312/3/6 304/3/6 313/3/6
f 304/4/6 305/4/6 314/4/6
f 313/3/6 304/3/6 314/3/6
f 305/4/6 306/4/6 314/4/6
f 307/3/6 308/3/6 315/3/6
f 314/4/6 306/4/6 315/4/6
f 306/3/6 307/3/6 315/3/6
f 315/3/6 308/3/6 316/3/6
f 310/3/6 287/3/6 317/3/6
f 317/3/6 287/3/6 318/3/6
f 316/3/6 308/3/6 319/3/6
f 314/4/6 315/4/6 319/4/6
f 315/4/6 316/4/6 319/4/6
f 319/3/6 308/3/6 320/3/6
f 318/3/6 287/3/6 321/3/6
f 293/5/6 294/5/6 322/5/6
f 321/3/6 287/3/6 322/3/6
f 287/5/6 293/5/6 322/5/6
f 290/4/6 280/4/6 323/4/6
f 295/4/6 290/4/6 323/4/6
f 294/4/6 295/4/6 323/4/6
f 280/6/6 268/6/6 324/6/6
f 323/4/6 280/4/6 324/4/6
f 268/4/6 259/4/6 325/4/6
f 324/6/6 268/6/6 325/6/6
f 313/5/6 314/5/6 326/5/6
f 312/4/6 313/4/6 326/4/6
f 326/5/6 314/5/6 327/5/6
f 319/4/6 320/4/6 328/4/6
f 314/4/6 319/4/6 328/4/6
f 328/4/6 320/4/6 329/4/6
f 318/3/6 321/3/6 330/3/6
f 321/5/6 322/5/6 331/5/6
f 330/3/6 321/3/6 331/3/6
f 294/4/6 323/4/6 332/4/6
f 323/3/6 324/3/6 333/3/6
f 332/4/6 323/4/6 333/4/6
f 324/3/6 325/3/6 333/3/6
f 326/3/6 327/3/6 334/3/6
f 312/4/6 326/4/6 334/4/6
f 327/5/6 314/5/6 335/5/6
f 334/3/6 327/3/6 335/3/6
f 314/4/6 328/4/6 336/4/6
f 328/5/6 329/5/6 337/5/6
f 336/4/6 328/4/6 337/4/6
f 331/5/6 322/5/6 338/5/6
f 322/5/6 294/5/6 339/5/6
f 338/5/6 322/5/6 339/5/6
f 294/4/6 332/4/6 340/4/6
f 339/5/6 294/5/6 340/5/6
f 332/3/6 333/3/6 341/3/6
f 340/4/6 332/4/6 341/4/6
f 312/4/6 334/4/6 342/4/6
f 334/5/6 335/5/6 342/5/6
f 314/4/6 336/4/6 343/4/6
f 342/5/6 335/5/6 343/5/6
f 335/5/6 314/5/6 343/5/6
f 336/3/6 337/3/6 344/3/6
f 343/4/6 336/4/6 344/4/6
f 337/5/6 329/5/6 345/5/6
f 344/3/6 337/3/6 345/3/6
f 345/5/6 329/5/6 346/5/6
f 346/5/6 329/5/6 347/5/6
f 339/4/6 340/4/6 348/4/6
f 348/4/6 340/4/6 349/4/6
f 340/3/6 341/3/6 350/3/6
f 349/4/6 340/4/6 350/4/6
f 345/5/6 346/5/6 351/5/6
f 346/3/6 347/3/6 351/3/6
f 347/5/6 329/5/6 352/5/6
f 351/3/6 347/3/6 352/3/6
f 349/3/6 350/3/6 353/3/6
f 341/3/6 333/3/6 354/3/6
f 353/3/6 350/3/6 354/3/6
f 333/3/6 325/3/6 354/3/6
f 350/3/6 341/3/6 354/3/6
f 354/3/6 325/3/6 355/3/6
f 325/4/6 259/4/6 356/4/6
f 355/3/6 325/3/6 356/3/6
f 356/4/6 259/4/6 357/4/6
f 351/5/6 352/5/6 358/5/6
f 352/5/6 329/5/6 358/5/6
f 358/5/6 329/5/6 359/5/6
f 351/5/6 358/5/6 360/5/6
f 358/3/6 359/3/6 360/3/6
f 359/5/6 329/5/6 361/5/6
f 360/3/6 359/3/6 361/3/6
f 361/5/6 329/5/6 362/5/6
f 302/6/6 311/6/6 364/6/6
f 296/6/6 302/6/6 364/6/6
f 256/4/6 296/4/6 364/4/6
f 311/6/6 312/6/6 364/6/6
f 364/6/6 312/6/6 365/6/6
f 343/4/6 344/4/6 366/4/6
f 365/6/6 312/6/6 366/6/6
f 312/4/6 342/4/6 366/4/6
f 342/4/6 343/4/6 366/4/6
f 344/4/6 345/4/6 366/4/6
f 366/4/6 345/4/6 367/4/6
f 361/5/6 362/5/6 368/5/6
f 345/5/6 351/5/6 368/5/6
f 360/5/6 361/5/6 368/5/6
f 351/5/6 360/5/6 368/5/6
f 362/4/6 363/4/6 369/4/6
f 368/5/6 362/5/6 369/5/6
f 364/3/6 365/3/6 370/3/6
f 366/6/6 367/6/6 370/6/6
f 365/6/6 366/6/6 370/6/6
f 370/6/6 367/6/6 371/6/6
f 368/3/6 369/3/6 372/3/6
f 372/3/6 369/3/6 373/3/6
f 369/4/6 363/4/6 374/4/6
f 256/4/6 364/4/6 376/4/6
f 364/3/6 370/3/6 376/3/6
f 370/3/6 371/3/6 376/3/6
f 376/3/6 371/3/6 377/3/6
f 372/5/6 373/5/6 378/5/6
f 368/3/6 372/3/6 378/3/6
f 373/3/6 369/3/6 379/3/6
f 378/5/6 373/5/6 379/5/6
f 376/6/6 377/6/6 380/6/6
f 256/4/6 376/4/6 380/4/6
f 377/3/6 371/3/6 381/3/6
f 380/6/6 377/6/6 381/6/6
f 368/3/6 378/3/6 382/3/6
f 345/5/6 368/5/6 382/5/6
f 378/3/6 379/3/6 382/3/6
f 374/4/6 375/4/6 383/4/6
f 382/3/6 379/3/6 383/3/6
f 369/4/6 374/4/6 383/4/6
f 379/3/6 369/3/6 383/3/6
f 383/4/6 375/4/6 384/4/6
f 381/3/6 371/3/6 386/3/6
f 380/3/6 381/3/6 386/3/6
f 371/6/6 367/6/6 387/6/6
f 386/3/6 371/3/6 387/3/6
f 345/5/6 382/5/6 388/5/6
f 367/4/6 345/4/6 388/4/6
f 382/5/6 383/5/6 388/5/6
f 384/4/6 385/4/6 389/4/6
f 388/5/6 383/5/6 389/5/6
f 383/4/6 384/4/6 389/4/6
f 389/4/6 385/4/6 390/4/6
f 256/4/6 380/4/6 392/4/6
f 380/3/6 386/3/6 392/3/6
f 386/6/6 387/6/6 393/6/6
f 392/3/6 386/3/6 393/3/6
f 390/4/6 391/4/6 394/4/6
f 389/4/6 390/4/6 394/4/6
f 388/4/6 389/4/6 394/4/6
f 393/6/6 387/6/6 396/6/6
f 392/6/6 393/6/6 396/6/6
f 387/6/6 367/6/6 397/6/6
f 396/6/6 387/6/6 397/6/6
f 367/4/6 388/4/6 398/4/6
f 397/6/6 367/6/6 398/6/6
f 394/4/6 395/4/6 398/4/6
f 388/4/6 394/4/6 398/4/6
f 398/4/6 395/4/6 399/4/6
f 399/4/6 395/4/6 400/4/6
f 399/4/6 400/4/6 402/4/6
f 400/4/6 401/4/6 402/4/6
f 397/6/6 398/6/6 404/6/6
f 398/6/6 399/6/6 404/6/6
f 402/4/6 403/4/6 405/4/6
f 404/6/6 399/6/6 405/6/6
f 399/4/6 402/4/6 405/4/6
f 405/4/6 403/4/6 406/4/6
f 397/6/6 404/6/6 408/6/6
f 406/4/6 407/4/6 409/4/6
f 408/6/6 404/6/6 409/6/6
f 404/4/6 405/4/6 409/4/6
f 405/4/6 406/4/6 409/4/6
f 409/4/6 407/4/6 410/4/6
f 410/4/6 407/4/6 411/4/6
f 392/6/6 396/6/6 417/6/6
f 396/5/6 397/5/6 418/5/6
f 417/6/6 396/6/6 418/6/6
f 397/6/6 408/6/6 419/6/6
f 418/5/6 397/5/6 419/5/6
f 408/4/6 409/4/6 420/4/6
f 419/6/6 408/6/6 420/6/6
f 409/4/6 410/4/6 420/4/6
f 410/6/6 411/6/6 421/6/6
f 411/6/6 412/6/6 421/6/6
f 421/6/6 412/6/6 422/6/6
f 422/6/6 412/6/6 423/6/6
f 423/6/6 412/6/6 424/6/6
f 420/4/6 410/4/6 425/4/6
f 419/4/6 420/4/6 425/4/6
f 410/6/6 421/6/6 425/6/6
f 425/6/6 421/6/6 426/6/6
f 421/3/6 422/3/6 427/3/6
f 426/6/6 421/6/6 427/6/6
f 422/6/6 423/6/6 428/6/6
f 427/3/6 422/3/6 428/3/6
f 423/3/6 424/3/6 429/3/6
f 428/6/6 423/6/6 429/6/6
f 424/6/6 412/6/6 430/6/6
f 429/3/6 424/3/6 430/3/6
f 412/4/6 413/4/6 431/4/6
f 430/6/6 412/6/6 431/6/6
f 413/5/6 414/5/6 432/5/6
f 414/3/6 415/3/6 433/3/6
f 432/5/6 414/5/6 433/5/6
f 433/3/6 415/3/6 434/3/6
f 425/4/6 426/4/6 435/4/6
f 419/4/6 425/4/6 435/4/6
f 435/4/6 426/4/6 436/4/6
f 413/5/6 432/5/6 437/5/6
f 432/3/6 433/3/6 437/3/6
f 433/4/6 434/4/6 438/4/6
f 437/3/6 433/3/6 438/3/6
f 434/3/6 415/3/6 439/3/6
f 438/4/6 434/4/6 439/4/6
f 439/3/6 415/3/6 440/3/6
f 419/4/6 435/4/6 441/4/6
f 435/3/6 436/3/6 442/3/6
f 441/4/6 435/4/6 442/4/6
f 436/4/6 426/4/6 443/4/6
f 442/3/6 436/3/6 443/3/6
f 443/4/6 426/4/6 444/4/6
f 428/6/6 429/6/6 445/6/6
f 444/4/6 426/4/6 445/4/6
f 427/6/6 428/6/6 445/6/6
f 426/6/6 427/6/6 445/6/6
f 445/6/6 429/6/6 446/6/6
f 429/4/6 430/4/6 447/4/6
f 446/6/6 429/6/6 447/6/6
f 430/4/6 431/4/6 447/4/6
f 437/5/6 438/5/6 448/5/6
f 413/5/6 437/5/6 448/5/6
f 448/5/6 438/5/6 449/5/6
f 439/4/6 440/4/6 450/4/6
f 440/3/6 415/3/6 450/3/6
f 438/4/6 439/4/6 450/4/6
f 450/3/6 415/3/6 451/3/6
f 419/4/6 441/4/6 452/4/6
f 441/3/6 442/3/6 453/3/6
f 452/4/6 441/4/6 453/4/6
f 443/3/6 444/3/6 453/3/6
f 442/3/6 443/3/6 453/3/6
f 445/4/6 446/4/6 454/4/6
f 453/3/6 444/3/6 454/3/6
f 444/4/6 445/4/6 454/4/6
f 454/4/6 446/4/6 455/4/6
f 446/3/6 447/3/6 456/3/6
f 455/4/6 446/4/6 456/4/6
f 447/4/6 431/4/6 457/4/6
f 456/3/6 447/3/6 457/3/6
f 413/5/6 448/5/6 458/5/6
f 448/3/6 449/3/6 458/3/6
f 449/5/6 438/5/6 459/5/6
f 458/3/6 449/3/6 459/3/6
f 450/4/6 451/4/6 460/4/6
f 451/3/6 415/3/6 460/3/6
f 415/4/6 416/4/6 461/4/6
f 460/3/6 415/3/6 461/3/6
f 418/5/6 419/5/6 462/5/6
f 419/4/6 452/4/6 463/4/6
f 462/5/6 419/5/6 463/5/6
f 452/3/6 453/3/6 464/3/6
f 454/3/6 455/3/6 464/3/6
f 453/3/6 454/3/6 464/3/6
f 455/4/6 456/4/6 465/4/6
f 464/3/6 455/3/6 465/3/6
f 456/4/6 457/4/6 465/4/6
f 431/4/6 413/4/6 466/4/6
f 465/4/6 457/4/6 466/4/6
f 413/5/6 458/5/6 466/5/6
f 457/4/6 431/4/6 466/4/6
f 458/5/6 459/5/6 466/5/6
f 450/4/6 460/4/6 467/4/6
f 466/5/6 459/5/6 467/5/6
f 459/5/6 438/5/6 467/5/6
f 438/4/6 450/4/6 467/4/6
f 460/4/6 461/4/6 467/4/6
f 461/4/6 416/4/6 468/4/6
f 467/4/6 461/4/6 468/4/6
f 417/4/6 418/4/6 469/4/6
f 418/5/6 462/5/6 469/5/6
f 469/5/6 462/5/6 470/5/6
f 462/3/6 463/3/6 471/3/6
f 470/5/6 462/5/6 471/5/6
f 463/4/6 452/4/6 472/4/6
f 471/3/6 463/3/6 472/3/6
f 472/4/6 452/4/6 473/4/6
f 469/4/6 470/4/6 474/4/6
f 417/4/6 469/4/6 474/4/6
f 470/3/6 471/3/6 475/3/6
f 474/4/6 470/4/6 475/4/6
f 472/3/6 473/3/6 475/3/6
f 471/3/6 472/3/6 475/3/6
f 473/4/6 452/4/6 476/4/6
f 475/3/6 473/3/6 476/3/6
f 476/4/6 452/4/6 477/4/6
f 465/5/6 466/5/6 478/5/6
f 466/5/6 467/5/6 478/5/6
f 464/5/6 465/5/6 478/5/6
f 478/5/6 467/5/6 479/5/6
f 467/6/6 468/6/6 480/6/6
f 480/6/6 468/6/6 481/6/6
f 481/6/6 468/6/6 482/6/6
f 482/6/6 468/6/6 483/6/6
f 476/3/6 477/3/6 484/3/6
f 474/3/6 475/3/6 484/3/6
f 475/3/6 476/3/6 484/3/6
f 484/3/6 477/3/6 485/3/6
f 479/5/6 467/5/6 486/5/6
f 478/4/6 479/4/6 486/4/6
f 486/5/6 467/5/6 487/5/6
f 467/6/6 480/6/6 488/6/6
f 480/3/6 481/3/6 488/3/6
f 481/6/6 482/6/6 489/6/6
f 488/3/6 481/3/6 489/3/6
f 482/3/6 483/3/6 490/3/6
f 489/6/6 482/6/6 490/6/6
f 483/6/6 468/6/6 491/6/6
f 490/3/6 483/3/6 491/3/6
f 484/4/6 485/4/6 492/4/6
f 474/3/6 484/3/6 492/3/6
f 485/3/6 477/3/6 493/3/6
f 492/4/6 485/4/6 493/4/6
f 477/4/6 452/4/6 494/4/6
f 452/3/6 464/3/6 494/3/6
f 494/3/6 464/3/6 495/3/6
f 464/5/6 478/5/6 496/5/6
f 495/3/6 464/3/6 496/3/6
f 496/5/6 478/5/6 497/5/6
f 486/4/6 487/4/6 498/4/6
f 497/5/6 478/5/6 498/5/6
f 478/4/6 486/4/6 498/4/6
f 487/5/6 467/5/6 499/5/6
f 498/4/6 487/4/6 499/4/6
f 489/6/6 490/6/6 500/6/6
f 499/5/6 467/5/6 500/5/6
f 488/6/6 489/6/6 500/6/6
f 467/6/6 488/6/6 500/6/6
f 490/6/6 491/6/6 500/6/6
f 392/6/6 417/6/6 501/6/6
f 256/4/6 392/4/6 501/4/6
f 417/4/6 474/4/6 502/4/6
f 501/6/6 417/6/6 502/6/6
f 474/3/6 492/3/6 503/3/6
f 502/4/6 474/4/6 503/4/6
f 492/3/6 493/3/6 503/3/6
f 493/3/6 477/3/6 504/3/6
f 503/3/6 493/3/6 504/3/6
f 477/4/6 494/4/6 504/4/6
f 494/4/6 495/4/6 504/4/6
f 496/3/6 497/3/6 505/3/6
f 504/4/6 495/4/6 505/4/6
f 495/3/6 496/3/6 505/3/6
f 498/4/6 499/4/6 506/4/6
f 505/3/6 497/3/6 506/3/6
f 497/4/6 498/4/6 506/4/6
f 499/6/6 500/6/6 507/6/6
f 506/4/6 499/4/6 507/4/6
f 500/6/6 491/6/6 508/6/6
f 507/6/6 500/6/6 508/6/6
f 468/4/6 416/4/6 508/4/6
f 491/6/6 468/6/6 508/6/6
f 506/4/6 507/4/6 509/4/6
f 502/4/6 503/4/6 509/4/6
f 507/4/6 508/4/6 509/4/6
f 503/4/6 504/4/6 509/4/6
f 501/4/6 502/4/6 509/4/6
f 504/4/6 505/4/6 509/4/6
f 256/4/6 501/4/6 509/4/6
f 505/4/6 506/4/6 509/4/6
f 508/4/6 416/4/6 510/4/6
f 509/4/6 508/4/6 510/4/6
