# MagicaVoxel @ Ephtracy

# group
g dirtCornerCollider2

# material
mtllib dirtCornerCollider2.mtl
usemtl palette

# normals
vn -1 0 0
vn 1 0 0
vn 0 -1 0
vn 0 1 0
vn 0 0 -1
vn 0 0 1

# texcoords
vt 0.978516 0.5

# verts
v 0 0 80
v 0 80 80
v 0 0 88
v 0 80 88
v 33 0 80
v 33 7 80
v 33 0 88
v 33 7 88
v 34 7 80
v 34 12 80
v 34 7 88
v 34 12 88
v 35 12 80
v 35 16 80
v 35 12 88
v 35 16 88
v 36 16 80
v 36 18 80
v 36 16 88
v 36 18 88
v 37 18 80
v 37 20 80
v 37 18 88
v 37 20 88
v 38 20 80
v 38 22 80
v 38 20 88
v 38 22 88
v 39 22 80
v 39 24 80
v 39 22 88
v 39 24 88
v 40 24 80
v 40 26 80
v 40 24 88
v 40 26 88
v 41 26 80
v 41 27 80
v 41 26 88
v 41 27 88
v 42 27 80
v 42 29 80
v 42 27 88
v 42 29 88
v 43 29 80
v 43 30 80
v 43 29 88
v 43 30 88
v 44 30 80
v 44 31 80
v 44 30 88
v 44 31 88
v 45 31 80
v 45 32 80
v 45 31 88
v 45 32 88
v 46 32 80
v 46 33 80
v 46 32 88
v 46 33 88
v 47 33 80
v 47 34 80
v 47 33 88
v 47 34 88
v 48 34 80
v 48 35 80
v 48 34 88
v 48 35 88
v 49 35 80
v 49 36 80
v 49 35 88
v 49 36 88
v 50 36 80
v 50 37 80
v 50 36 88
v 50 37 88
v 51 37 80
v 51 38 80
v 51 37 88
v 51 38 88
v 53 38 80
v 53 39 80
v 53 38 88
v 53 39 88
v 54 39 80
v 54 40 80
v 54 39 88
v 54 40 88
v 56 40 80
v 56 41 80
v 56 40 88
v 56 41 88
v 58 41 80
v 58 42 80
v 58 41 88
v 58 42 88
v 60 42 80
v 60 43 80
v 60 42 88
v 60 43 88
v 62 43 80
v 62 44 80
v 62 43 88
v 62 44 88
v 64 44 80
v 64 45 80
v 64 44 88
v 64 45 88
v 68 45 80
v 68 46 80
v 68 45 88
v 68 46 88
v 73 46 80
v 73 47 80
v 73 46 88
v 73 47 88
v 80 47 80
v 80 80 80
v 80 47 88
v 80 80 88
v 0 0 80
v 0 0 88
v 33 0 80
v 33 0 88
v 33 7 80
v 33 7 88
v 34 7 80
v 34 7 88
v 34 12 80
v 34 12 88
v 35 12 80
v 35 12 88
v 35 16 80
v 35 16 88
v 36 16 80
v 36 16 88
v 36 18 80
v 36 18 88
v 37 18 80
v 37 18 88
v 37 20 80
v 37 20 88
v 38 20 80
v 38 20 88
v 38 22 80
v 38 22 88
v 39 22 80
v 39 22 88
v 39 24 80
v 39 24 88
v 40 24 80
v 40 24 88
v 40 26 80
v 40 26 88
v 41 26 80
v 41 26 88
v 41 27 80
v 41 27 88
v 42 27 80
v 42 27 88
v 42 29 80
v 42 29 88
v 43 29 80
v 43 29 88
v 43 30 80
v 43 30 88
v 44 30 80
v 44 30 88
v 44 31 80
v 44 31 88
v 45 31 80
v 45 31 88
v 45 32 80
v 45 32 88
v 46 32 80
v 46 32 88
v 46 33 80
v 46 33 88
v 47 33 80
v 47 33 88
v 47 34 80
v 47 34 88
v 48 34 80
v 48 34 88
v 48 35 80
v 48 35 88
v 49 35 80
v 49 35 88
v 49 36 80
v 49 36 88
v 50 36 80
v 50 36 88
v 50 37 80
v 50 37 88
v 51 37 80
v 51 37 88
v 51 38 80
v 51 38 88
v 53 38 80
v 53 38 88
v 53 39 80
v 53 39 88
v 54 39 80
v 54 39 88
v 54 40 80
v 54 40 88
v 56 40 80
v 56 40 88
v 56 41 80
v 56 41 88
v 58 41 80
v 58 41 88
v 58 42 80
v 58 42 88
v 60 42 80
v 60 42 88
v 60 43 80
v 60 43 88
v 62 43 80
v 62 43 88
v 62 44 80
v 62 44 88
v 64 44 80
v 64 44 88
v 64 45 80
v 64 45 88
v 68 45 80
v 68 45 88
v 68 46 80
v 68 46 88
v 73 46 80
v 73 46 88
v 73 47 80
v 73 47 88
v 80 47 80
v 80 47 88
v 0 80 80
v 0 80 88
v 80 80 80
v 80 80 88
v 0 0 80
v 33 0 80
v 33 7 80
v 34 7 80
v 34 12 80
v 35 12 80
v 35 16 80
v 36 16 80
v 36 18 80
v 37 18 80
v 37 20 80
v 38 20 80
v 38 22 80
v 39 22 80
v 39 24 80
v 40 24 80
v 40 26 80
v 41 26 80
v 41 27 80
v 42 27 80
v 42 29 80
v 43 29 80
v 43 30 80
v 44 30 80
v 44 31 80
v 45 31 80
v 45 32 80
v 46 32 80
v 46 33 80
v 47 33 80
v 47 34 80
v 48 34 80
v 48 35 80
v 49 35 80
v 49 36 80
v 50 36 80
v 50 37 80
v 51 37 80
v 51 38 80
v 53 38 80
v 53 39 80
v 54 39 80
v 54 40 80
v 56 40 80
v 56 41 80
v 58 41 80
v 58 42 80
v 60 42 80
v 60 43 80
v 62 43 80
v 62 44 80
v 64 44 80
v 64 45 80
v 68 45 80
v 68 46 80
v 73 46 80
v 73 47 80
v 80 47 80
v 0 80 80
v 80 80 80
v 0 0 88
v 33 0 88
v 33 7 88
v 34 7 88
v 34 12 88
v 35 12 88
v 35 16 88
v 36 16 88
v 36 18 88
v 37 18 88
v 37 20 88
v 38 20 88
v 38 22 88
v 39 22 88
v 39 24 88
v 40 24 88
v 40 26 88
v 41 26 88
v 41 27 88
v 42 27 88
v 42 29 88
v 43 29 88
v 43 30 88
v 44 30 88
v 44 31 88
v 45 31 88
v 45 32 88
v 46 32 88
v 46 33 88
v 47 33 88
v 47 34 88
v 48 34 88
v 48 35 88
v 49 35 88
v 49 36 88
v 50 36 88
v 50 37 88
v 51 37 88
v 51 38 88
v 53 38 88
v 53 39 88
v 54 39 88
v 54 40 88
v 56 40 88
v 56 41 88
v 58 41 88
v 58 42 88
v 60 42 88
v 60 43 88
v 62 43 88
v 62 44 88
v 64 44 88
v 64 45 88
v 68 45 88
v 68 46 88
v 73 46 88
v 73 47 88
v 80 47 88
v 0 80 88
v 80 80 88

# faces
f 3/1/1 2/1/1 1/1/1
f 4/1/1 2/1/1 3/1/1
f 5/1/2 6/1/2 7/1/2
f 7/1/2 6/1/2 8/1/2
f 9/1/2 10/1/2 11/1/2
f 11/1/2 10/1/2 12/1/2
f 13/1/2 14/1/2 15/1/2
f 15/1/2 14/1/2 16/1/2
f 17/1/2 18/1/2 19/1/2
f 19/1/2 18/1/2 20/1/2
f 21/1/2 22/1/2 23/1/2
f 23/1/2 22/1/2 24/1/2
f 25/1/2 26/1/2 27/1/2
f 27/1/2 26/1/2 28/1/2
f 29/1/2 30/1/2 31/1/2
f 31/1/2 30/1/2 32/1/2
f 33/1/2 34/1/2 35/1/2
f 35/1/2 34/1/2 36/1/2
f 37/1/2 38/1/2 39/1/2
f 39/1/2 38/1/2 40/1/2
f 41/1/2 42/1/2 43/1/2
f 43/1/2 42/1/2 44/1/2
f 45/1/2 46/1/2 47/1/2
f 47/1/2 46/1/2 48/1/2
f 49/1/2 50/1/2 51/1/2
f 51/1/2 50/1/2 52/1/2
f 53/1/2 54/1/2 55/1/2
f 55/1/2 54/1/2 56/1/2
f 57/1/2 58/1/2 59/1/2
f 59/1/2 58/1/2 60/1/2
f 61/1/2 62/1/2 63/1/2
f 63/1/2 62/1/2 64/1/2
f 65/1/2 66/1/2 67/1/2
f 67/1/2 66/1/2 68/1/2
f 69/1/2 70/1/2 71/1/2
f 71/1/2 70/1/2 72/1/2
f 73/1/2 74/1/2 75/1/2
f 75/1/2 74/1/2 76/1/2
f 77/1/2 78/1/2 79/1/2
f 79/1/2 78/1/2 80/1/2
f 81/1/2 82/1/2 83/1/2
f 83/1/2 82/1/2 84/1/2
f 85/1/2 86/1/2 87/1/2
f 87/1/2 86/1/2 88/1/2
f 89/1/2 90/1/2 91/1/2
f 91/1/2 90/1/2 92/1/2
f 93/1/2 94/1/2 95/1/2
f 95/1/2 94/1/2 96/1/2
f 97/1/2 98/1/2 99/1/2
f 99/1/2 98/1/2 100/1/2
f 101/1/2 102/1/2 103/1/2
f 103/1/2 102/1/2 104/1/2
f 105/1/2 106/1/2 107/1/2
f 107/1/2 106/1/2 108/1/2
f 109/1/2 110/1/2 111/1/2
f 111/1/2 110/1/2 112/1/2
f 113/1/2 114/1/2 115/1/2
f 115/1/2 114/1/2 116/1/2
f 117/1/2 118/1/2 119/1/2
f 119/1/2 118/1/2 120/1/2
f 123/1/3 122/1/3 121/1/3
f 124/1/3 122/1/3 123/1/3
f 127/1/3 126/1/3 125/1/3
f 128/1/3 126/1/3 127/1/3
f 131/1/3 130/1/3 129/1/3
f 132/1/3 130/1/3 131/1/3
f 135/1/3 134/1/3 133/1/3
f 136/1/3 134/1/3 135/1/3
f 139/1/3 138/1/3 137/1/3
f 140/1/3 138/1/3 139/1/3
f 143/1/3 142/1/3 141/1/3
f 144/1/3 142/1/3 143/1/3
f 147/1/3 146/1/3 145/1/3
f 148/1/3 146/1/3 147/1/3
f 151/1/3 150/1/3 149/1/3
f 152/1/3 150/1/3 151/1/3
f 155/1/3 154/1/3 153/1/3
f 156/1/3 154/1/3 155/1/3
f 159/1/3 158/1/3 157/1/3
f 160/1/3 158/1/3 159/1/3
f 163/1/3 162/1/3 161/1/3
f 164/1/3 162/1/3 163/1/3
f 167/1/3 166/1/3 165/1/3
f 168/1/3 166/1/3 167/1/3
f 171/1/3 170/1/3 169/1/3
f 172/1/3 170/1/3 171/1/3
f 175/1/3 174/1/3 173/1/3
f 176/1/3 174/1/3 175/1/3
f 179/1/3 178/1/3 177/1/3
f 180/1/3 178/1/3 179/1/3
f 183/1/3 182/1/3 181/1/3
f 184/1/3 182/1/3 183/1/3
f 187/1/3 186/1/3 185/1/3
f 188/1/3 186/1/3 187/1/3
f 191/1/3 190/1/3 189/1/3
f 192/1/3 190/1/3 191/1/3
f 195/1/3 194/1/3 193/1/3
f 196/1/3 194/1/3 195/1/3
f 199/1/3 198/1/3 197/1/3
f 200/1/3 198/1/3 199/1/3
f 203/1/3 202/1/3 201/1/3
f 204/1/3 202/1/3 203/1/3
f 207/1/3 206/1/3 205/1/3
f 208/1/3 206/1/3 207/1/3
f 211/1/3 210/1/3 209/1/3
f 212/1/3 210/1/3 211/1/3
f 215/1/3 214/1/3 213/1/3
f 216/1/3 214/1/3 215/1/3
f 219/1/3 218/1/3 217/1/3
f 220/1/3 218/1/3 219/1/3
f 223/1/3 222/1/3 221/1/3
f 224/1/3 222/1/3 223/1/3
f 227/1/3 226/1/3 225/1/3
f 228/1/3 226/1/3 227/1/3
f 231/1/3 230/1/3 229/1/3
f 232/1/3 230/1/3 231/1/3
f 235/1/3 234/1/3 233/1/3
f 236/1/3 234/1/3 235/1/3
f 237/1/4 238/1/4 239/1/4
f 239/1/4 238/1/4 240/1/4
f 243/1/5 242/1/5 241/1/5
f 245/1/5 244/1/5 243/1/5
f 247/1/5 246/1/5 245/1/5
f 249/1/5 248/1/5 247/1/5
f 251/1/5 250/1/5 249/1/5
f 253/1/5 252/1/5 251/1/5
f 255/1/5 254/1/5 253/1/5
f 257/1/5 256/1/5 255/1/5
f 259/1/5 258/1/5 257/1/5
f 261/1/5 260/1/5 259/1/5
f 263/1/5 262/1/5 261/1/5
f 265/1/5 264/1/5 263/1/5
f 267/1/5 266/1/5 265/1/5
f 269/1/5 268/1/5 267/1/5
f 271/1/5 270/1/5 269/1/5
f 273/1/5 272/1/5 271/1/5
f 275/1/5 274/1/5 273/1/5
f 277/1/5 276/1/5 275/1/5
f 279/1/5 278/1/5 277/1/5
f 281/1/5 280/1/5 279/1/5
f 283/1/5 282/1/5 281/1/5
f 285/1/5 284/1/5 283/1/5
f 287/1/5 286/1/5 285/1/5
f 289/1/5 288/1/5 287/1/5
f 291/1/5 290/1/5 289/1/5
f 293/1/5 292/1/5 291/1/5
f 295/1/5 294/1/5 293/1/5
f 297/1/5 296/1/5 295/1/5
f 299/1/5 243/1/5 241/1/5
f 299/1/5 298/1/5 297/1/5
f 299/1/5 297/1/5 295/1/5
f 299/1/5 295/1/5 293/1/5
f 299/1/5 293/1/5 291/1/5
f 299/1/5 291/1/5 289/1/5
f 299/1/5 289/1/5 287/1/5
f 299/1/5 287/1/5 285/1/5
f 299/1/5 285/1/5 283/1/5
f 299/1/5 283/1/5 281/1/5
f 299/1/5 281/1/5 279/1/5
f 299/1/5 279/1/5 277/1/5
f 299/1/5 277/1/5 275/1/5
f 299/1/5 275/1/5 273/1/5
f 299/1/5 273/1/5 271/1/5
f 299/1/5 271/1/5 269/1/5
f 299/1/5 269/1/5 267/1/5
f 299/1/5 267/1/5 265/1/5
f 299/1/5 265/1/5 263/1/5
f 299/1/5 263/1/5 261/1/5
f 299/1/5 261/1/5 259/1/5
f 299/1/5 259/1/5 257/1/5
f 299/1/5 257/1/5 255/1/5
f 299/1/5 255/1/5 253/1/5
f 299/1/5 253/1/5 251/1/5
f 299/1/5 251/1/5 249/1/5
f 299/1/5 249/1/5 247/1/5
f 299/1/5 247/1/5 245/1/5
f 299/1/5 245/1/5 243/1/5
f 300/1/5 298/1/5 299/1/5
f 301/1/6 302/1/6 303/1/6
f 303/1/6 304/1/6 305/1/6
f 305/1/6 306/1/6 307/1/6
f 307/1/6 308/1/6 309/1/6
f 309/1/6 310/1/6 311/1/6
f 311/1/6 312/1/6 313/1/6
f 313/1/6 314/1/6 315/1/6
f 315/1/6 316/1/6 317/1/6
f 317/1/6 318/1/6 319/1/6
f 319/1/6 320/1/6 321/1/6
f 321/1/6 322/1/6 323/1/6
f 323/1/6 324/1/6 325/1/6
f 325/1/6 326/1/6 327/1/6
f 327/1/6 328/1/6 329/1/6
f 329/1/6 330/1/6 331/1/6
f 331/1/6 332/1/6 333/1/6
f 333/1/6 334/1/6 335/1/6
f 335/1/6 336/1/6 337/1/6
f 337/1/6 338/1/6 339/1/6
f 339/1/6 340/1/6 341/1/6
f 341/1/6 342/1/6 343/1/6
f 343/1/6 344/1/6 345/1/6
f 345/1/6 346/1/6 347/1/6
f 347/1/6 348/1/6 349/1/6
f 349/1/6 350/1/6 351/1/6
f 351/1/6 352/1/6 353/1/6
f 353/1/6 354/1/6 355/1/6
f 355/1/6 356/1/6 357/1/6
f 301/1/6 303/1/6 359/1/6
f 357/1/6 358/1/6 359/1/6
f 355/1/6 357/1/6 359/1/6
f 353/1/6 355/1/6 359/1/6
f 351/1/6 353/1/6 359/1/6
f 349/1/6 351/1/6 359/1/6
f 347/1/6 349/1/6 359/1/6
f 345/1/6 347/1/6 359/1/6
f 343/1/6 345/1/6 359/1/6
f 341/1/6 343/1/6 359/1/6
f 339/1/6 341/1/6 359/1/6
f 337/1/6 339/1/6 359/1/6
f 335/1/6 337/1/6 359/1/6
f 333/1/6 335/1/6 359/1/6
f 331/1/6 333/1/6 359/1/6
f 329/1/6 331/1/6 359/1/6
f 327/1/6 329/1/6 359/1/6
f 325/1/6 327/1/6 359/1/6
f 323/1/6 325/1/6 359/1/6
f 321/1/6 323/1/6 359/1/6
f 319/1/6 321/1/6 359/1/6
f 317/1/6 319/1/6 359/1/6
f 315/1/6 317/1/6 359/1/6
f 313/1/6 315/1/6 359/1/6
f 311/1/6 313/1/6 359/1/6
f 309/1/6 311/1/6 359/1/6
f 307/1/6 309/1/6 359/1/6
f 305/1/6 307/1/6 359/1/6
f 303/1/6 305/1/6 359/1/6
f 359/1/6 358/1/6 360/1/6
